PathFileType	4	(X/Y/Z)	C:/Users/opensim2020/Desktop/walking_exp_matlab/subject01_walking05_straight_01.trc	
DataRate	CameraRate	NumFrames	NumMarkers	Units	OrigDataRate	OrigDataStartFrame	OrigNumFrames	
100.00	100.00	4	43	mm	100.00	874	239	
Frame#	Time	LFHD			RFHD			LBHD			RBHD			C7			T10			CLAV			STRN			RBAK			LSHO			LUPA			LELB			LFRM			LWRA			LWRB			LFIN			RSHO			RUPA			RELB			RFRM			RWRA			RWRB			RFIN			LASI			RASI			LPSI			RPSI			LTHI			LKNE			LTIB			LANK			LHEE			LTOE			RTHI			RKNE			RTIB			RANK			RHEE			RTOE			*39			*40			*41			*42			
		X1	Y1	Z1	X2	Y2	Z2	X3	Y3	Z3	X4	Y4	Z4	X5	Y5	Z5	X6	Y6	Z6	X7	Y7	Z7	X8	Y8	Z8	X9	Y9	Z9	X10	Y10	Z10	X11	Y11	Z11	X12	Y12	Z12	X13	Y13	Z13	X14	Y14	Z14	X15	Y15	Z15	X16	Y16	Z16	X17	Y17	Z17	X18	Y18	Z18	X19	Y19	Z19	X20	Y20	Z20	X21	Y21	Z21	X22	Y22	Z22	X23	Y23	Z23	X24	Y24	Z24	X25	Y25	Z25	X26	Y26	Z26	X27	Y27	Z27	X28	Y28	Z28	X29	Y29	Z29	X30	Y30	Z30	X31	Y31	Z31	X32	Y32	Z32	X33	Y33	Z33	X34	Y34	Z34	X35	Y35	Z35	X36	Y36	Z36	X37	Y37	Z37	X38	Y38	Z38	X39	Y39	Z39	X40	Y40	Z40	X41	Y41	Z41	X42	Y42	Z42	X43	Y43	Z43	

120	1.190	-1041.09277	-59.69921	1679.10510	-928.14697	-44.61758	1690.34644	-1029.27051	-156.19066	1600.13257	-909.32715	-142.98952	1609.45605	-981.65302	-156.65445	1432.87073	-966.17053	-186.98190	1141.18701	-987.22565	-10.44412	1370.19397	-993.19623	34.64994	1214.52734	-894.33618	-200.63139	1240.63721	-1145.67188	-79.60323	1396.63635	-1225.60754	-125.61499	1214.03284	-1223.31213	-152.23189	1065.20300	-1247.32910	-119.02589	955.10400	-1232.22485	-42.13715	838.53223	-1251.13416	-98.88138	834.32294	-1261.86499	-54.40296	763.02197	-832.62445	-64.37829	1398.90833	-723.11157	-95.85615	1197.41699	-716.34668	-77.97042	1072.37170	-690.74011	-23.32615	963.09045	-719.14185	78.35986	867.54651	-677.72601	38.77362	858.36963	-681.45996	92.93811	793.20441	-1084.03247	-21.60225	937.55389	-866.68616	-14.66316	934.54510	-1029.80750	-205.66652	944.46625	-885.03735	-201.75656	950.78760	-1154.38684	42.04010	626.05157	-1141.44836	67.39551	493.76657	-1144.87231	-3.13947	317.69537	-1093.07715	-45.29774	102.93619	-1030.91150	-79.69257	72.94982	-1127.81250	84.05627	53.34589	-819.38300	-90.02303	601.99536	-847.44647	-96.09490	443.04346	-840.25079	-163.24402	278.98785	-894.89868	-206.12489	77.15839	-945.04169	-257.45621	42.07649	-900.36591	-66.37802	34.17833	-950.01031	-68.00099	1717.78394	-3101.88989	1973.17114	1023.47687	-3140.45752	2012.58252	1022.04376			 
121	1.200	-1042.09033	-50.72789	1678.43042	-929.14392	-35.69938	1689.98730	-1030.19958	-147.20444	1599.46106	-910.17548	-134.10594	1609.17041	-981.74811	-147.71875	1432.33374	-966.03064	-178.39798	1140.80151	-987.65155	-1.67570	1369.63586	-993.52838	43.23326	1213.86194	-894.03870	-191.63960	1240.31885	-1145.98926	-71.07732	1396.11414	-1225.77380	-117.64584	1213.50000	-1222.84851	-145.26407	1064.95129	-1246.64880	-113.81071	954.48627	-1230.95093	-38.90891	836.53876	-1250.46082	-95.71834	833.36060	-1260.50061	-52.58277	760.99506	-833.10455	-55.06442	1398.71899	-722.86755	-85.87606	1197.54150	-715.61121	-67.60631	1072.57495	-690.20117	-11.46794	963.84821	-718.89313	91.31155	869.62451	-677.37347	51.91548	859.88409	-681.15747	107.15673	795.68762	-1084.10327	-13.21469	936.89117	-866.68768	-6.49856	933.68176	-1030.01355	-197.45535	944.17725	-885.51367	-193.30898	950.49146	-1154.53674	50.30490	625.65088	-1140.97864	76.06454	493.42740	-1145.49817	13.57286	314.18893	-1094.68176	-16.26972	96.53664	-1032.77234	-49.38623	65.28174	-1128.66052	115.86909	53.76774	-819.61511	-84.79784	601.58142	-847.01538	-92.68056	442.79556	-840.22717	-161.27556	279.32184	-894.79193	-205.21130	77.81288	-945.06995	-256.86603	42.77985	-900.29059	-66.23117	34.17892	-951.15320	-59.06972	1717.36462	-3101.93140	1973.05078	1023.66431	-3140.42212	2012.57788	1022.04187			 
122	1.210	-1043.33655	-41.71560	1677.63843	-930.28180	-26.74823	1689.49585	-1031.27734	-138.33627	1598.84302	-911.23181	-125.14158	1608.82092	-981.92334	-139.10716	1431.90479	-966.10956	-169.93877	1140.35559	-988.23004	7.16635	1369.07385	-993.90601	51.86446	1213.15564	-893.82526	-182.70811	1239.96863	-1146.34705	-62.52714	1395.49731	-1226.02747	-109.61849	1212.91113	-1222.57959	-138.10097	1064.80457	-1246.20166	-108.34555	953.79895	-1229.85254	-35.56876	834.42218	-1249.93884	-92.21780	832.42578	-1259.23962	-50.28277	759.13898	-833.60016	-45.92023	1398.42834	-722.72949	-75.79069	1197.60999	-714.92969	-57.30927	1072.69397	-689.66644	0.00603	964.47113	-718.75043	104.15448	871.78674	-677.17261	64.89159	861.44873	-680.96735	121.16073	798.03430	-1084.28760	-4.69137	936.22772	-866.78979	1.50622	932.77985	-1030.28455	-189.07047	943.80273	-885.78094	-185.19176	950.39392	-1154.93237	57.99860	624.89703	-1140.67212	84.04537	492.48428	-1146.32764	30.35154	310.76489	-1096.70227	12.87912	91.36840	-1035.09644	-19.37058	58.54603	-1129.16846	147.50977	54.88930	-819.61639	-79.65060	601.39172	-847.20337	-89.40279	442.56943	-840.20642	-159.18788	279.77151	-894.77838	-205.23705	78.29356	-944.93280	-256.65320	43.48240	-900.24286	-66.23679	34.07389	-952.42059	-50.08409	1716.81982	-3101.85815	1973.02039	1023.32458	-3140.67676	2012.56787	1021.97754			 
123	1.220	-1044.61951	-32.67128	1676.85913	-931.25568	-17.85673	1688.85059	-1032.39722	-129.22627	1597.97681	-912.42291	-116.34243	1608.35083	-982.36163	-130.10616	1431.34949	-966.33246	-161.44542	1139.89392	-988.83386	16.00239	1368.37158	-994.34692	60.56779	1212.39746	-893.79254	-173.70113	1239.54333	-1146.89624	-53.83551	1394.81689	-1226.36401	-101.47131	1212.23730	-1222.47778	-130.85832	1064.31030	-1245.87000	-102.58710	953.08722	-1228.89050	-31.81521	832.52472	-1249.46606	-88.33189	831.43988	-1258.16211	-47.53358	757.37415	-834.26093	-36.55687	1398.09180	-722.61011	-65.71976	1197.68213	-714.39624	-47.01056	1072.78906	-689.30511	11.62029	965.11951	-718.70770	116.83006	873.75531	-677.07697	77.75631	862.92847	-680.84796	134.87851	800.36627	-1084.55640	3.97628	935.53125	-866.88489	9.80498	932.13184	-1030.75647	-180.66501	943.29236	-886.43579	-176.96594	950.07361	-1155.23877	64.93281	623.33704	-1140.43188	91.74319	491.27283	-1147.24377	47.20328	307.70880	-1098.85327	41.94187	87.12095	-1037.30591	10.69943	52.91318	-1129.33582	178.71609	56.49228	-819.47748	-74.53313	601.36969	-846.68530	-85.61862	442.63199	-840.22473	-157.27931	280.30249	-894.78729	-204.82849	79.10017	-945.09979	-256.99948	45.52780	-900.17041	-66.19685	34.08512	-953.80054	-41.09665	1716.18835	-3101.91748	1973.15344	1023.36316	-3140.72778	2012.55005	1021.99756			 
